<svg xmlns="http://www.w3.org/2000/svg" width="20.754" height="22.165" viewBox="0 0 20.754 22.165">
  <path id="Path_3626" data-name="Path 3626" d="M13.866,21.1a8.493,8.493,0,0,1-4.761-1.568,22.093,22.093,0,0,1-5.877-5.707A13.638,13.638,0,0,1,.761,8.875a7.352,7.352,0,0,1,.967-6.088A8.55,8.55,0,0,1,3.932.763,1.333,1.333,0,0,1,5.719.945a8.8,8.8,0,0,1,2.33,3.761A1.85,1.85,0,0,1,7.4,6.792c-.355.286-.7.592-1.068.854a1.791,1.791,0,0,0-.67,2.425A9.852,9.852,0,0,0,7.5,12.893a13.1,13.1,0,0,0,2.644,2.414,2.294,2.294,0,0,0,1.363.471,2.133,2.133,0,0,0,1.46-.792c.249-.25.477-.523.741-.756a2.091,2.091,0,0,1,2.618-.268,19.1,19.1,0,0,1,2.146,1.682,5.557,5.557,0,0,1,.986,1.12,1.194,1.194,0,0,1-.064,1.555,8.81,8.81,0,0,1-2.827,2.275A6.831,6.831,0,0,1,13.866,21.1Z" transform="translate(0.252 0.311)" fill="none" stroke="#fff" stroke-linecap="round" stroke-width="1.5"/>
</svg>
