<svg xmlns="http://www.w3.org/2000/svg" width="50.607" height="50.947" viewBox="0 0 50.607 50.947">
  <g id="Group_4114" data-name="Group 4114" transform="translate(-68.902 -378.065)">
    <line id="Line_413" data-name="Line 413" x2="19.002" transform="translate(84.697 428.512)" fill="none" stroke="#0077b5" stroke-linecap="round" stroke-linejoin="round" stroke-width="1"/>
    <line id="Line_414" data-name="Line 414" x2="19.002" transform="translate(84.697 425.186)" fill="none" stroke="#0077b5" stroke-linecap="round" stroke-linejoin="round" stroke-width="1"/>
    <line id="Line_415" data-name="Line 415" y1="8.448" transform="translate(91.823 416.738)" fill="none" stroke="#0077b5" stroke-linecap="round" stroke-linejoin="round" stroke-width="1"/>
    <line id="Line_416" data-name="Line 416" y1="8.448" transform="translate(96.642 416.738)" fill="none" stroke="#0077b5" stroke-linecap="round" stroke-linejoin="round" stroke-width="1"/>
    <path id="Path_1129" data-name="Path 1129" d="M97.829,403.369a3.624,3.624,0,1,1-3.623-3.623A3.624,3.624,0,0,1,97.829,403.369Z" fill="none" stroke="#0077b5" stroke-linecap="round" stroke-linejoin="round" stroke-width="1"/>
    <path id="Path_1130" data-name="Path 1130" d="M95.25,403.369a1.044,1.044,0,1,1-1.044-1.045A1.045,1.045,0,0,1,95.25,403.369Z" fill="none" stroke="#0077b5" stroke-linecap="round" stroke-linejoin="round" stroke-width="1"/>
    <path id="Path_1131" data-name="Path 1131" d="M102.408,403.369c0-.25-.013-.5-.035-.742l2.387-.989a10.636,10.636,0,0,0-1.869-4.507l-2.384.986a8.4,8.4,0,0,0-1.05-1.05l.987-2.383a10.615,10.615,0,0,0-4.508-1.869l-.988,2.386c-.245-.022-.492-.035-.742-.035s-.5.013-.743.035l-.988-2.386a10.6,10.6,0,0,0-4.508,1.869l.988,2.383a8.275,8.275,0,0,0-1.051,1.05l-2.384-.986a10.635,10.635,0,0,0-1.869,4.507l2.386.989c-.021.245-.035.492-.035.742s.014.5.035.742l-2.386.989a10.63,10.63,0,0,0,1.869,4.507l2.384-.988a8.09,8.09,0,0,0,1.051,1.051l-.989,2.384a10.653,10.653,0,0,0,4.509,1.87l.988-2.387c.245.022.492.035.743.035s.5-.013.742-.035l.988,2.387a10.654,10.654,0,0,0,4.508-1.87l-.987-2.383a8.339,8.339,0,0,0,1.05-1.051l2.384.987a10.63,10.63,0,0,0,1.869-4.507l-2.387-.989C102.395,403.866,102.408,403.619,102.408,403.369Z" fill="none" stroke="#0077b5" stroke-linecap="round" stroke-linejoin="round" stroke-width="1"/>
    <path id="Path_1132" data-name="Path 1132" d="M87,428.512V416.767h0a15.208,15.208,0,1,1,14.455-.029v11.774" fill="none" stroke="#0077b5" stroke-linecap="round" stroke-linejoin="round" stroke-width="1"/>
    <path id="Path_1133" data-name="Path 1133" d="M108.709,423.49a24.8,24.8,0,1,0-29.007,0" fill="none" stroke="#0077b5" stroke-linecap="round" stroke-linejoin="round" stroke-width="1"/>
    <line id="Line_417" data-name="Line 417" y2="0.639" transform="translate(75.198 403.322)" fill="#fff" stroke="#0077b5" stroke-width="1"/>
    <line id="Line_418" data-name="Line 418" y2="0.639" transform="translate(113.213 403.322)" fill="#fff" stroke="#0077b5" stroke-width="1"/>
    <line id="Line_419" data-name="Line 419" x2="0.166" y2="0.617" transform="translate(75.763 408.253)" fill="#fff" stroke="#0077b5" stroke-width="1"/>
    <line id="Line_420" data-name="Line 420" x2="0.165" y2="0.617" transform="translate(112.483 398.413)" fill="#fff" stroke="#0077b5" stroke-width="1"/>
    <line id="Line_421" data-name="Line 421" x2="0.32" y2="0.553" transform="translate(77.585 412.869)" fill="#fff" stroke="#0077b5" stroke-width="1"/>
    <line id="Line_422" data-name="Line 422" x2="0.319" y2="0.554" transform="translate(110.507 393.861)" fill="#fff" stroke="#0077b5" stroke-width="1"/>
    <line id="Line_423" data-name="Line 423" x2="0.452" y2="0.451" transform="translate(80.539 416.856)" fill="#fff" stroke="#0077b5" stroke-width="1"/>
    <line id="Line_424" data-name="Line 424" x2="0.451" y2="0.451" transform="translate(107.42 389.976)" fill="#fff" stroke="#0077b5" stroke-width="1"/>
    <line id="Line_425" data-name="Line 425" x2="0.553" y2="0.319" transform="translate(103.433 387.021)" fill="#fff" stroke="#0077b5" stroke-width="1"/>
    <line id="Line_426" data-name="Line 426" x2="0.616" y2="0.165" transform="translate(98.817 385.199)" fill="#fff" stroke="#0077b5" stroke-width="1"/>
    <line id="Line_427" data-name="Line 427" x2="0.639" transform="translate(93.886 384.635)" fill="#fff" stroke="#0077b5" stroke-width="1"/>
    <line id="Line_428" data-name="Line 428" y1="0.165" x2="0.617" transform="translate(88.978 385.199)" fill="#fff" stroke="#0077b5" stroke-width="1"/>
    <line id="Line_429" data-name="Line 429" y1="0.319" x2="0.553" transform="translate(84.426 387.021)" fill="#fff" stroke="#0077b5" stroke-width="1"/>
    <line id="Line_430" data-name="Line 430" y1="0.451" x2="0.452" transform="translate(107.42 416.856)" fill="#fff" stroke="#0077b5" stroke-width="1"/>
    <line id="Line_431" data-name="Line 431" y1="0.451" x2="0.452" transform="translate(80.54 389.976)" fill="#fff" stroke="#0077b5" stroke-width="1"/>
    <line id="Line_432" data-name="Line 432" y1="0.553" x2="0.319" transform="translate(110.507 412.869)" fill="#fff" stroke="#0077b5" stroke-width="1"/>
    <line id="Line_433" data-name="Line 433" y1="0.554" x2="0.319" transform="translate(77.585 393.861)" fill="#fff" stroke="#0077b5" stroke-width="1"/>
    <line id="Line_434" data-name="Line 434" y1="0.617" x2="0.166" transform="translate(112.482 408.253)" fill="#fff" stroke="#0077b5" stroke-width="1"/>
    <line id="Line_435" data-name="Line 435" y1="0.617" x2="0.165" transform="translate(75.763 398.413)" fill="#fff" stroke="#0077b5" stroke-width="1"/>
  </g>
</svg>
