<svg xmlns="http://www.w3.org/2000/svg" width="21" height="21" viewBox="0 0 21 21">
  <path id="Icon_material-local-phone" data-name="Icon material-local-phone" d="M8.723,13.588a17.673,17.673,0,0,0,7.688,7.688l2.567-2.567a1.16,1.16,0,0,1,1.19-.28,13.308,13.308,0,0,0,4.165.665A1.17,1.17,0,0,1,25.5,20.262v4.072A1.17,1.17,0,0,1,24.333,25.5,19.832,19.832,0,0,1,4.5,5.667,1.17,1.17,0,0,1,5.667,4.5H9.75a1.17,1.17,0,0,1,1.167,1.167,13.254,13.254,0,0,0,.665,4.165,1.171,1.171,0,0,1-.292,1.19Z" transform="translate(-4.5 -4.5)" fill="#fff"/>
</svg>
