<svg xmlns="http://www.w3.org/2000/svg" width="49.33" height="55.638" viewBox="0 0 49.33 55.638">
  <g id="Group_4120" data-name="Group 4120" transform="translate(-172.043 -442.698)">
    <path id="Path_1158" data-name="Path 1158" d="M203.058,483.375s-.339-2.9,3.337-7.447a14.742,14.742,0,0,0,3.23-8.575,12.916,12.916,0,1,0-25.833,0,14.742,14.742,0,0,0,3.23,8.575c3.676,4.544,3.337,7.447,3.337,7.447" fill="rgba(0,0,0,0)" stroke="#0077b5" stroke-width="1"/>
    <path id="Path_1159" data-name="Path 1159" d="M190.156,487.077h13.5l-13.5,4.411" fill="rgba(0,0,0,0)" stroke="#0077b5" stroke-width="1"/>
    <path id="Path_1160" data-name="Path 1160" d="M203.682,495.6a12,12,0,0,1-13.522.29l13.5-4.4" fill="rgba(0,0,0,0)" stroke="#0077b5" stroke-width="1"/>
    <line id="Line_444" data-name="Line 444" y2="7.455" transform="translate(196.708 442.698)" fill="none" stroke="#0077b5" stroke-width="1"/>
    <line id="Line_445" data-name="Line 445" x1="5.271" y2="5.271" transform="translate(208.878 449.923)" fill="none" stroke="#0077b5" stroke-width="1"/>
    <line id="Line_446" data-name="Line 446" x1="5.271" y2="5.272" transform="translate(179.268 479.533)" fill="none" stroke="#0077b5" stroke-width="1"/>
    <line id="Line_447" data-name="Line 447" x1="7.455" transform="translate(213.918 467.363)" fill="none" stroke="#0077b5" stroke-width="1"/>
    <line id="Line_448" data-name="Line 448" x1="7.455" transform="translate(172.043 467.363)" fill="none" stroke="#0077b5" stroke-width="1"/>
    <line id="Line_449" data-name="Line 449" x1="5.271" y1="5.272" transform="translate(208.878 479.533)" fill="none" stroke="#0077b5" stroke-width="1"/>
    <line id="Line_450" data-name="Line 450" x1="5.271" y1="5.271" transform="translate(179.268 449.923)" fill="none" stroke="#0077b5" stroke-width="1"/>
    <path id="Path_1161" data-name="Path 1161" d="M197.114,458.666a9.266,9.266,0,0,0-9.265,9.267" fill="rgba(0,0,0,0)" stroke="#0077b5" stroke-width="1"/>
  </g>
</svg>
