<svg xmlns="http://www.w3.org/2000/svg" width="51.704" height="51.704" viewBox="0 0 51.704 51.704">
  <g id="Group_4118" data-name="Group 4118" transform="translate(-70.829 -451.085)">
    <path id="Path_1151" data-name="Path 1151" d="M107.442,476.938a10.762,10.762,0,1,1-10.761-10.762A10.76,10.76,0,0,1,107.442,476.938Z" fill="rgba(0,0,0,0)" stroke="#0077b5" stroke-width="1"/>
    <path id="Path_1152" data-name="Path 1152" d="M113.385,480.852a17.087,17.087,0,0,0,0-7.83h-2.652a14.564,14.564,0,0,0-1.349-3.255l1.875-1.876a17.07,17.07,0,0,0-5.537-5.534l-1.874,1.874a14.526,14.526,0,0,0-3.256-1.349v-2.65a17.069,17.069,0,0,0-7.829,0v2.652a14.507,14.507,0,0,0-3.256,1.349l-1.875-1.876a17.073,17.073,0,0,0-5.534,5.538l1.874,1.874a14.471,14.471,0,0,0-1.349,3.255h-2.65a17.059,17.059,0,0,0,0,7.83h2.653a14.441,14.441,0,0,0,1.348,3.254L82.1,485.982a17.054,17.054,0,0,0,5.537,5.535l1.874-1.873a14.5,14.5,0,0,0,3.256,1.348v2.65a17.082,17.082,0,0,0,7.829,0v-2.653a14.523,14.523,0,0,0,3.256-1.348l1.876,1.875a17.077,17.077,0,0,0,5.534-5.539l-1.874-1.873a14.544,14.544,0,0,0,1.349-3.255Z" fill="rgba(0,0,0,0)" stroke="#0077b5" stroke-width="1"/>
    <path id="Path_1153" data-name="Path 1153" d="M117.853,459.036a3.378,3.378,0,1,1-3.378-3.379A3.379,3.379,0,0,1,117.853,459.036Z" fill="rgba(0,0,0,0)" stroke="#0077b5" stroke-width="1"/>
    <path id="Path_1154" data-name="Path 1154" d="M82.045,494.642a3.378,3.378,0,1,1-3.378-3.378A3.379,3.379,0,0,1,82.045,494.642Z" fill="rgba(0,0,0,0)" stroke="#0077b5" stroke-width="1"/>
    <g id="Group_4111" data-name="Group 4111">
      <path id="Path_1155" data-name="Path 1155" d="M109.3,454.942a25.358,25.358,0,0,0-34.688,34.472" fill="rgba(0,0,0,0)" stroke="#0077b5" stroke-width="1"/>
      <path id="Path_1156" data-name="Path 1156" d="M84.065,498.932a25.357,25.357,0,0,0,34.688-34.472" fill="rgba(0,0,0,0)" stroke="#0077b5" stroke-width="1"/>
    </g>
    <path id="Path_1157" data-name="Path 1157" d="M99.632,487.281v-4.42a6.142,6.142,0,0,0-.441-10.991v5.91H94.17v-5.91a6.142,6.142,0,0,0-.441,10.991v4.42" fill="rgba(0,0,0,0)" stroke="#0077b5" stroke-width="1"/>
  </g>
</svg>
