<svg xmlns="http://www.w3.org/2000/svg" width="47.561" height="47.734" viewBox="0 0 47.561 47.734">
  <g id="Group_4116" data-name="Group 4116" transform="translate(-169.38 -379.084)">
    <rect id="Rectangle_1028" data-name="Rectangle 1028" width="8.408" height="8.408" transform="translate(192.621 402.324)" fill="rgba(0,0,0,0)" stroke="#0077b5" stroke-width="1"/>
    <path id="Path_1134" data-name="Path 1134" d="M208.546,394.634H184.931v23.789H205.56a2.99,2.99,0,0,0,2.986-2.989v-.025h0Z" fill="rgba(0,0,0,0)" stroke="#0077b5" stroke-width="1"/>
    <line id="Line_436" data-name="Line 436" y1="10.639" transform="translate(188.323 383.995)" fill="none" stroke="#0077b5" stroke-width="1"/>
    <line id="Line_437" data-name="Line 437" y1="4.711" transform="translate(196.878 389.923)" fill="none" stroke="#0077b5" stroke-width="1"/>
    <path id="Path_1135" data-name="Path 1135" d="M205.492,394.634V388.94h6.274" fill="rgba(0,0,0,0)" stroke="#0077b5" stroke-width="1"/>
    <path id="Path_1136" data-name="Path 1136" d="M190.529,381.789a2.206,2.206,0,1,1-2.206-2.2A2.206,2.206,0,0,1,190.529,381.789Z" fill="rgba(0,0,0,0)" stroke="#0077b5" stroke-width="1"/>
    <line id="Line_438" data-name="Line 438" x1="10.64" transform="translate(174.291 414.901)" fill="none" stroke="#0077b5" stroke-width="1"/>
    <path id="Path_1137" data-name="Path 1137" d="M172.086,412.7a2.205,2.205,0,1,1-2.206,2.2A2.205,2.205,0,0,1,172.086,412.7Z" fill="rgba(0,0,0,0)" stroke="#0077b5" stroke-width="1"/>
    <path id="Path_1138" data-name="Path 1138" d="M216.146,388.943a2.205,2.205,0,1,1-2.205-2.2A2.2,2.2,0,0,1,216.146,388.943Z" fill="rgba(0,0,0,0)" stroke="#0077b5" stroke-width="1"/>
    <path id="Path_1139" data-name="Path 1139" d="M184.834,398.045H172.083v3.138" fill="rgba(0,0,0,0)" stroke="#0077b5" stroke-width="1"/>
    <path id="Path_1140" data-name="Path 1140" d="M172.086,405.564a2.206,2.206,0,1,0-2.206-2.207A2.206,2.206,0,0,0,172.086,405.564Z" fill="rgba(0,0,0,0)" stroke="#0077b5" stroke-width="1"/>
    <path id="Path_1141" data-name="Path 1141" d="M198.166,388.636a1.288,1.288,0,1,1-1.288-1.288A1.288,1.288,0,0,1,198.166,388.636Z" fill="rgba(0,0,0,0)" stroke="#0077b5" stroke-width="1"/>
    <line id="Line_439" data-name="Line 439" x2="4.71" transform="translate(208.546 397.839)" fill="none" stroke="#0077b5" stroke-width="1"/>
    <path id="Path_1142" data-name="Path 1142" d="M208.546,414.9h5.692v6.273" fill="rgba(0,0,0,0)" stroke="#0077b5" stroke-width="1"/>
    <path id="Path_1143" data-name="Path 1143" d="M214.236,425.556a2.206,2.206,0,1,1,2.205-2.2A2.206,2.206,0,0,1,214.236,425.556Z" fill="rgba(0,0,0,0)" stroke="#0077b5" stroke-width="1"/>
    <path id="Path_1144" data-name="Path 1144" d="M214.544,399.126a1.288,1.288,0,1,1,1.288-1.287A1.288,1.288,0,0,1,214.544,399.126Z" fill="rgba(0,0,0,0)" stroke="#0077b5" stroke-width="1"/>
    <line id="Line_440" data-name="Line 440" x1="4.711" transform="translate(180.22 406.528)" fill="none" stroke="#0077b5" stroke-width="1"/>
    <path id="Path_1145" data-name="Path 1145" d="M178.933,407.815a1.288,1.288,0,1,0-1.289-1.287A1.287,1.287,0,0,0,178.933,407.815Z" fill="rgba(0,0,0,0)" stroke="#0077b5" stroke-width="1"/>
    <line id="Line_441" data-name="Line 441" x2="4.71" transform="translate(208.546 406.528)" fill="none" stroke="#0077b5" stroke-width="1"/>
    <path id="Path_1146" data-name="Path 1146" d="M214.544,407.815a1.288,1.288,0,1,1,1.288-1.287A1.288,1.288,0,0,1,214.544,407.815Z" fill="rgba(0,0,0,0)" stroke="#0077b5" stroke-width="1"/>
    <line id="Line_442" data-name="Line 442" y2="4.711" transform="translate(205.483 418.423)" fill="none" stroke="#0077b5" stroke-width="1"/>
    <path id="Path_1147" data-name="Path 1147" d="M188.42,418.423v5.692h-6.274" fill="rgba(0,0,0,0)" stroke="#0077b5" stroke-width="1"/>
    <path id="Path_1148" data-name="Path 1148" d="M177.767,424.113a2.205,2.205,0,1,1,2.205,2.2A2.206,2.206,0,0,1,177.767,424.113Z" fill="rgba(0,0,0,0)" stroke="#0077b5" stroke-width="1"/>
    <path id="Path_1149" data-name="Path 1149" d="M204.2,424.421a1.287,1.287,0,1,1,1.287,1.288A1.287,1.287,0,0,1,204.2,424.421Z" fill="rgba(0,0,0,0)" stroke="#0077b5" stroke-width="1"/>
    <line id="Line_443" data-name="Line 443" y2="4.711" transform="translate(196.793 418.423)" fill="none" stroke="#0077b5" stroke-width="1"/>
    <path id="Path_1150" data-name="Path 1150" d="M195.506,424.421a1.287,1.287,0,1,1,1.287,1.288A1.287,1.287,0,0,1,195.506,424.421Z" fill="rgba(0,0,0,0)" stroke="#0077b5" stroke-width="1"/>
  </g>
</svg>
